<?xml version="1.0" standalone="no"?>
<!DOCTYPE svg PUBLIC "-//W3C//DTD SVG 20010904//EN"
 "http://www.w3.org/TR/2001/REC-SVG-20010904/DTD/svg10.dtd">
<svg version="1.0" xmlns="http://www.w3.org/2000/svg"
 width="16.000000pt" height="16.000000pt" viewBox="0 0 16.000000 16.000000"
 preserveAspectRatio="xMidYMid meet">
<metadata>
Created by potrace 1.11, written by Peter Selinger 2001-2013
</metadata>
<g transform="translate(0.000000,16.000000) scale(0.006154,-0.006154)"
fill="#000000" stroke="none">
<path d="M115 2281 c-48 -22 -79 -54 -100 -103 -13 -33 -15 -142 -15 -881 l0
-843 22 -44 c14 -26 41 -57 66 -75 l44 -30 1146 -3 c796 -2 1158 0 1184 8 50
14 97 56 119 105 18 38 19 87 19 885 l0 846 -22 44 c-14 26 -41 57 -66 75
l-44 30 -1156 2 c-1108 3 -1159 2 -1197 -16z m591 -486 l294 -196 0 -82 0 -82
-291 -193 c-160 -107 -297 -195 -303 -198 -6 -2 -34 32 -63 76 l-52 79 235
157 c129 86 234 159 233 163 0 3 -105 75 -234 160 l-233 154 52 78 c28 43 55
79 60 79 4 0 140 -88 302 -195z m894 -796 l0 -99 -299 0 -298 0 0 99 0 98 298
0 299 0 0 -98z"/>
</g>
</svg>
